<?xml version="1.0" encoding="UTF-8" standalone="no"?>
<svg
   height="549.71521pt"
   fill="#00c2ef"
   viewBox="0 0 549.71521 549.71521"
   width="549.71521pt"
   version="1.1"
   id="svg826"
   sodipodi:docname="Announcement.svg"
   inkscape:version="1.1 (c4e8f9e, 2021-05-24)"
   xmlns:inkscape="http://www.inkscape.org/namespaces/inkscape"
   xmlns:sodipodi="http://sodipodi.sourceforge.net/DTD/sodipodi-0.dtd"
   xmlns="http://www.w3.org/2000/svg"
   xmlns:svg="http://www.w3.org/2000/svg">
  <defs
     id="defs830" />
  <sodipodi:namedview
     id="namedview828"
     pagecolor="#505050"
     bordercolor="#ffffff"
     borderopacity="1"
     inkscape:pageshadow="0"
     inkscape:pageopacity="0"
     inkscape:pagecheckerboard="1"
     inkscape:document-units="pt"
     showgrid="false"
     inkscape:zoom="0.22888184"
     inkscape:cx="836.67625"
     inkscape:cy="631.33012"
     inkscape:window-width="1312"
     inkscape:window-height="847"
     inkscape:window-x="1860"
     inkscape:window-y="36"
     inkscape:window-maximized="0"
     inkscape:current-layer="svg826"
     inkscape:snap-global="false" />
  <circle
     style="fill:#eeeeee;fill-opacity:1;fill-rule:evenodd;stroke-width:2.63675"
     id="path934"
     cx="274.8576"
     cy="274.8576"
     r="274.8576" />
  <ellipse
     style="opacity:1;fill:#00c2ef;fill-rule:evenodd;stroke-width:0.750671"
     id="path1334"
     cx="274.8576"
     cy="274.8576"
     rx="255.79843"
     ry="255.79781" />
  <g
     id="g1479"
     transform="matrix(2.1443502,0,0,2.1443502,-1930.7719,-2203.3396)">
    <path
       style="fill:#eeeeee;stroke-width:25.9801;stroke-linecap:round;stroke-linejoin:round;paint-order:markers fill stroke"
       d="m 1308.4189,1574.1268 c -2.7157,-4.4746 -4.191,-7.4334 -5.0775,-10.1827 -0.5367,-1.6645 -1.2468,-3.374 -1.578,-3.7988 -0.9055,-1.1616 -3.2449,-11.9267 -3.3512,-15.4217 l -0.093,-3.0641 9.2682,-4.7549 c 5.0975,-2.6152 9.688,-5.1464 10.201,-5.6248 0.5131,-0.4785 1.1153,-0.87 1.3382,-0.87 0.4166,0 11.1405,-7.1614 14.9197,-9.9634 8.3584,-6.1971 11.4945,-8.975 21.7005,-19.2217 5.2481,-5.2689 9.8197,-9.286 10.1591,-8.9268 0.3394,0.3591 2.0478,3.4051 3.7965,6.7687 2.7553,5.3 4.4451,8.9406 9.7085,20.9165 0.5601,1.2744 2.138,5.7927 3.5065,10.0406 1.3685,4.2479 2.7735,8.4186 3.1221,9.2682 0.3486,0.8495 1.1501,3.9776 1.7811,6.9511 0.631,2.9736 1.4893,6.7967 1.9074,8.4958 1.0575,4.2981 2.793,20.3634 2.2576,20.8988 -0.2418,0.2418 -2.3,0.053 -4.5738,-0.4203 -9.6293,-2.003 -12.4739,-2.364 -24.3995,-3.097 -12.9461,-0.7958 -34.1564,-0.01 -42.6811,1.5864 -2.3364,0.4368 -5.7506,1.0754 -7.5872,1.4191 -2.9365,0.5496 -3.4581,0.4291 -4.3248,-0.999 z"
       id="path1039"
       transform="scale(0.75)" />
    <path
       style="fill:#eeeeee;stroke-width:25.9801;stroke-linecap:round;stroke-linejoin:round;paint-order:markers fill stroke"
       d="m 1285.683,1579.284 c -3.1171,-0.5915 -8.1877,-6.3815 -9.3426,-10.6683 -0.5684,-2.11 -1.3298,-4.1665 -1.692,-4.57 -1.9961,-2.2243 1.5808,-11.4724 5.623,-14.5384 2.5265,-1.9163 11.4767,-5.419 11.4884,-4.496 0.071,5.6003 4.0056,18.967 7.6313,25.9256 1.3219,2.537 2.4034,5.004 2.4034,5.4822 0,2.1233 -10.3344,3.9609 -16.1115,2.8649 z"
       id="path1078"
       transform="scale(0.75)" />
    <path
       style="fill:#eeeeee;stroke-width:25.9801;stroke-linecap:round;stroke-linejoin:round;paint-order:markers fill stroke"
       d="m 1343.091,1623.0932 c -2.3123,-0.7214 -4.1496,-2.1678 -6.6796,-5.2586 -1.5063,-1.8402 -6.0359,-10.2654 -6.0383,-11.2316 -10e-4,-0.3606 -0.4885,-1.7509 -1.0834,-3.0894 -0.595,-1.3386 -1.49,-4.1716 -1.989,-6.2955 -1.0076,-4.2891 -3.4618,-7.9721 -7.8887,-11.8386 -1.6186,-1.4136 -2.9429,-2.876 -2.9429,-3.2497 0,-0.9928 9.7844,-3.7437 16.3455,-4.5956 7.0786,-0.9191 17.6839,-0.9753 19.0632,-0.1012 1.0557,0.669 1.0392,1.4676 -0.3047,14.8236 -0.3987,3.9618 -0.1238,6.6801 1.2496,12.3576 1.6666,6.889 1.9809,7.4937 5.8741,11.2996 2.2623,2.2116 4.1133,4.3281 4.1133,4.7032 0,2.2685 -14.5348,4.0937 -19.7191,2.4762 z"
       id="path1117"
       transform="scale(0.75)" />
    <path
       style="fill:#eeeeee;stroke-width:25.9801;stroke-linecap:round;stroke-linejoin:round;paint-order:markers fill stroke"
       d="m 1398.0013,1578.9289 c -0.3503,-1.0828 -0.4431,-1.6762 -2.3331,-14.9219 -0.6668,-4.6727 -1.5296,-9.3647 -1.9173,-10.4267 -0.3878,-1.062 -1.2899,-4.7113 -2.0048,-8.1096 -0.7149,-3.3984 -1.552,-6.5264 -1.8603,-6.9512 -0.3084,-0.4248 -0.9892,-2.7649 -1.513,-5.2002 -0.5238,-2.4353 -1.2764,-4.628 -1.6723,-4.8727 -0.396,-0.2447 -0.7199,-0.9533 -0.7199,-1.5745 0,-1.062 -4.678,-13.5833 -6.1293,-16.406 -0.3665,-0.7127 -2.6738,-5.4665 -5.1273,-10.564 -2.4536,-5.0975 -4.6679,-9.442 -4.9207,-9.6544 -0.2529,-0.2124 -0.9048,-1.3973 -1.4489,-2.6332 -1.0715,-2.4338 -0.3665,-3.5093 2.3163,-3.5338 1.31,-0.012 7.0519,10.1706 11.7525,20.8416 1.2163,2.7612 2.8618,6.4783 3.6567,8.2604 0.795,1.7821 1.4475,3.5199 1.4501,3.8618 0,0.3419 0.4619,1.4974 1.0206,2.5679 1.3846,2.653 5.6282,15.1912 6.2684,18.5209 0.2858,1.4868 0.8233,3.3984 1.1942,4.248 0.371,0.8495 1.2306,4.4989 1.9103,8.1096 4.9909,26.5163 5.1577,28.7831 2.149,29.2104 -0.9577,0.136 -1.8897,-0.2116 -2.0712,-0.7724 z"
       id="path1156"
       transform="scale(0.75)" />
    <path
       style="fill:#eeeeee;stroke-width:25.9801;stroke-linecap:round;stroke-linejoin:round;paint-order:markers fill stroke"
       d="m 1410.5026,1549.2768 c -2.4539,-1.3313 -2.4898,-1.6022 -0.9654,-7.2817 1.4761,-5.4993 1.4564,-10.5991 -0.064,-16.4652 -1.6721,-6.4526 -4.2684,-10.587 -9.7819,-15.5764 -4.4516,-4.0285 -4.6411,-4.3468 -3.9736,-6.6742 1.2298,-4.2881 2.7059,-4.4392 7.3608,-0.7535 2.2778,1.8035 5.2663,4.7314 6.6412,6.5065 1.3749,1.775 2.7819,3.5749 3.1267,3.9997 0.3448,0.4248 1.6346,3.2052 2.8663,6.1788 2.0503,4.9498 2.2383,6.1892 2.226,14.6746 -0.012,7.9525 -0.2577,9.789 -1.7337,12.9369 -1.8561,3.9586 -2.455,4.2164 -5.7027,2.4545 z"
       id="path1195"
       transform="scale(0.75)" />
    <path
       style="fill:#eeeeee;stroke-width:25.9801;stroke-linecap:round;stroke-linejoin:round;paint-order:markers fill stroke"
       d="m 1432.3003,1557.6982 c -1.0503,-0.7088 -2.0461,-1.3955 -2.2128,-1.5261 -0.1667,-0.1306 0.1101,-0.7353 0.6151,-1.3438 0.5051,-0.6086 1.7931,-3.8319 2.8622,-7.1629 2.8737,-8.9531 2.8618,-20.6156 -0.031,-29.8961 -1.1526,-3.6985 -3.4983,-9.1572 -5.2126,-12.1306 -3.5458,-6.1502 -11.316,-14.3438 -16.4627,-17.36 -1.9141,-1.1217 -3.4789,-2.441 -3.4773,-2.9316 0,-1.3932 2.9703,-5.9123 3.8801,-5.9123 0.4489,0 1.2361,0.3464 1.7491,0.7697 0.5131,0.4234 3.1268,2.3807 5.8082,4.3496 6.4194,4.7136 12.9558,12.6164 16.6309,20.1073 1.6335,3.3295 3.2808,6.6513 3.6607,7.3818 1.2219,2.3498 3.0238,14.5324 3.0238,20.4438 0,7.8948 -1.3514,15.9342 -3.643,21.6726 -2.117,5.3012 -3.5407,6.0018 -7.1911,3.5386 z"
       id="path1234"
       transform="scale(0.75)" />
    <path
       style="fill:#eeeeee;stroke-width:25.9801;stroke-linecap:round;stroke-linejoin:round;paint-order:markers fill stroke"
       d="m 1457.3011,1564.0982 -2.1388,-1.8397 1.3472,-6.4631 c 0.741,-3.5546 1.669,-7.8532 2.0621,-9.5524 0.9086,-3.9265 0.9333,-23.723 0.035,-27.8046 -1.6947,-7.6981 -3.2463,-13.3222 -4.2939,-15.5637 -0.6256,-1.3385 -1.1382,-2.7288 -1.1391,-3.0894 0,-1.2563 -4.8577,-9.9565 -8.1229,-14.5579 -3.491,-4.9195 -13.5597,-15.0608 -14.953,-15.0608 -0.4563,0 -1.3823,-0.8435 -2.0578,-1.8744 -1.1298,-1.7242 -1.1171,-2.1871 0.1581,-5.7775 0.7624,-2.1467 1.8918,-4.0971 2.5097,-4.3342 1.5781,-0.6056 7.2262,3.5316 13.6204,9.9769 4.8354,4.874 6.6487,7.2649 12.3602,16.2977 1.9816,3.1338 4.5285,8.6258 5.7355,12.3678 0.5463,1.6935 1.2883,3.4536 1.6489,3.9113 0.3606,0.4577 1.2028,3.2381 1.8716,6.1788 0.6688,2.9406 1.5916,6.9107 2.0506,8.8222 1.066,4.4393 1.0642,29.4072 0,33.9834 -2.5661,11.0092 -3.4942,14.3879 -4.19,15.2539 -1.226,1.5258 -4.1712,1.1297 -6.501,-0.8743 z"
       id="path1273"
       transform="scale(0.75)" />
  </g>
</svg>
