<?xml version="1.0" encoding="UTF-8" standalone="no"?>
<!-- Created with Inkscape (http://www.inkscape.org/) -->

<svg
   width="52.86517mm"
   height="36.890472mm"
   viewBox="0 0 52.86517 36.890473"
   version="1.1"
   id="svg5"
   inkscape:version="1.1 (c4e8f9e, 2021-05-24)"
   sodipodi:docname="Bot.svg"
   xmlns:inkscape="http://www.inkscape.org/namespaces/inkscape"
   xmlns:sodipodi="http://sodipodi.sourceforge.net/DTD/sodipodi-0.dtd"
   xmlns="http://www.w3.org/2000/svg"
   xmlns:svg="http://www.w3.org/2000/svg">
  <sodipodi:namedview
     id="namedview7"
     pagecolor="#505050"
     bordercolor="#ffffff"
     borderopacity="1"
     inkscape:pageshadow="0"
     inkscape:pageopacity="0"
     inkscape:pagecheckerboard="1"
     inkscape:document-units="mm"
     showgrid="false"
     inkscape:snap-global="false"
     inkscape:zoom="2.2271324"
     inkscape:cx="99.904252"
     inkscape:cy="45.574299"
     inkscape:window-width="1828"
     inkscape:window-height="939"
     inkscape:window-x="2135"
     inkscape:window-y="57"
     inkscape:window-maximized="0"
     inkscape:current-layer="layer1" />
  <defs
     id="defs2" />
  <g
     inkscape:label="Layer 1"
     inkscape:groupmode="layer"
     id="layer1"
     transform="translate(-25.651499,-90.525649)">
    <g
       id="g4362">
      <path
         id="rect846-9"
         style="fill:#eeeeee;fill-opacity:0.501961;fill-rule:evenodd;stroke-width:3.23459;stroke-opacity:0.502924;stop-color:#000000"
         d="m 27.41204,111.70618 6.017711,0.06 3.502927,4.24175 c 0,0 0.660749,0.3275 1.067519,0.41918 0.406769,0.0917 1.308178,0.10179 1.308178,0.10179 h 25.932019 c 0,0 1.08715,-0.0498 1.574764,-0.15905 0.487614,-0.10923 1.281217,-0.43395 1.281217,-0.43395 l 3.536949,-4.17208 5.122802,-0.0576 c 0.975267,-0.011 1.760543,0.73127 1.760543,1.63962 v 12.43066 c 0,0.90835 -0.785204,1.63962 -1.760543,1.63962 H 27.41204 c -0.97534,0 -1.760541,-0.73127 -1.760541,-1.63962 v -12.4307 c 0,-0.90835 0.785201,-1.63962 1.760541,-1.63962 z"
         sodipodi:nodetypes="scczcczccssssssss" />
      <path
         style="fill:#eeeeee;fill-opacity:0.501961;stroke:none;stroke-width:6.09079;stroke-linecap:round;stroke-miterlimit:4;stroke-dasharray:none;stroke-opacity:0.502924;paint-order:markers fill stroke"
         d="m 40.505525,113.69982 c -2.108959,-0.057 -2.549922,-0.10029 -2.818717,-0.27644 -0.306472,-0.20084 -1.715408,-1.79352 -3.033109,-3.42868 l -0.629902,-0.78165 -1.43805,-0.0773 c -0.790927,-0.0425 -2.154394,-0.0773 -3.029924,-0.0773 h -1.591871 l 0.0808,-8.2269 c 0.07515,-7.65095 0.09589,-8.251851 0.296244,-8.583302 0.273785,-0.452925 0.996217,-1.135923 1.551223,-1.466546 l 0.42982,-0.256053 H 52.16935 74.01664 l 0.47308,0.313306 c 0.63072,0.417706 1.21266,0.973098 1.47666,1.409293 0.20064,0.331509 0.22153,0.930968 0.29909,8.583302 l 0.0834,8.2269 -2.05922,7.9e-4 c -1.13258,2.7e-4 -2.27307,0.0587 -2.53443,0.12952 -0.37091,0.10057 -0.70985,0.37844 -1.5444,1.26615 -2.41989,2.574 -2.7187,2.85263 -3.2076,2.99102 -0.26136,0.074 -1.49094,0.1843 -2.7324,0.24516 -2.38735,0.11705 -19.529141,0.12347 -23.765279,0.009 z m 0.909759,-8.56348 c 3.037512,-0.5718 4.87118,-3.82548 3.77848,-6.704581 -0.805254,-2.12172 -2.742287,-3.370321 -5.041389,-3.249647 -0.843182,0.04425 -1.125937,0.117753 -1.87252,0.486733 -1.077796,0.532677 -1.857433,1.329719 -2.380279,2.433423 -0.353962,0.747192 -0.378378,0.883052 -0.378378,2.105532 0,1.24424 0.01929,1.34626 0.402876,2.13113 0.678585,1.38847 1.902555,2.37891 3.398727,2.75024 0.752744,0.18682 1.286676,0.19886 2.092483,0.0472 z m 23.426556,-0.0567 c 1.87411,-0.48815 3.24413,-1.81184 3.70447,-3.57921 0.80528,-3.091669 -1.31552,-6.095293 -4.45574,-6.310529 -2.71508,-0.186097 -4.90376,1.535398 -5.36395,4.218999 -0.59475,3.46837 2.73084,6.55225 6.11522,5.67074 z"
         id="path4050" />
    </g>
  </g>
</svg>
