<?xml version="1.0" encoding="UTF-8" standalone="no"?>
<!-- Created with Inkscape (http://www.inkscape.org/) -->

<svg
   width="32.3568mm"
   height="32.3568mm"
   viewBox="0 0 32.3568 32.3568"
   version="1.1"
   id="svg5"
   inkscape:version="1.1 (c4e8f9e, 2021-05-24)"
   sodipodi:docname="LineupView.svg"
   xmlns:inkscape="http://www.inkscape.org/namespaces/inkscape"
   xmlns:sodipodi="http://sodipodi.sourceforge.net/DTD/sodipodi-0.dtd"
   xmlns="http://www.w3.org/2000/svg"
   xmlns:svg="http://www.w3.org/2000/svg">
  <sodipodi:namedview
     id="namedview7"
     pagecolor="#505050"
     bordercolor="#ffffff"
     borderopacity="1"
     inkscape:pageshadow="0"
     inkscape:pageopacity="0"
     inkscape:pagecheckerboard="1"
     inkscape:document-units="mm"
     showgrid="false"
     inkscape:snap-global="false"
     inkscape:zoom="3.1496409"
     inkscape:cx="45.402001"
     inkscape:cy="72.547953"
     inkscape:window-width="1927"
     inkscape:window-height="977"
     inkscape:window-x="1582"
     inkscape:window-y="50"
     inkscape:window-maximized="0"
     inkscape:current-layer="layer1" />
  <defs
     id="defs2" />
  <g
     inkscape:label="Layer 1"
     inkscape:groupmode="layer"
     id="layer1"
     transform="translate(-98.215231,-129.01319)">
    <circle
       style="opacity:1;fill:#000000;fill-rule:evenodd;stroke-width:0.0619971"
       id="path1709"
       cx="114.39363"
       cy="145.19159"
       r="16.1784" />
    <path
       style="opacity:0.587654;fill:#00c2ef;stroke-width:4.82433;stroke-linecap:round;stroke-linejoin:round;paint-order:markers fill stroke"
       d="m 104.10781,154.92037 v -1.22609 h -1.46087 c -1.13419,0 -1.46077,-0.0146 -1.46038,-0.0652 2.6e-4,-0.0359 0.0588,-0.40565 0.12988,-0.82173 0.0712,-0.41609 0.1296,-0.77413 0.12988,-0.79566 2.4e-4,-0.0215 0.29578,-0.0391 0.65669,-0.0391 0.6557,0 0.6563,-9e-5 0.80869,-0.15251 l 0.15251,-0.15251 -1.7e-4,-3.48662 c -1.5e-4,-3.40508 -0.003,-3.49067 -0.10542,-3.65933 -0.15873,-0.26035 -0.39742,-0.33704 -1.13345,-0.36417 l -0.63914,-0.0236 v -0.7559 -0.75592 l 1.16088,0.0129 c 0.63847,0.007 1.29586,0.01 1.46087,0.006 l 0.3,-0.007 v -1.2 -1.2 h 0.73043 0.73044 v 1.17391 1.17392 h 0.6 0.60001 v -1.17392 -1.17391 h 0.70435 0.70434 v 1.17208 c 0,1.3457 -0.0418,1.24398 0.53317,1.30042 0.92967,0.0913 1.87517,0.46253 2.37009,0.93061 0.5129,0.48508 0.7222,1.09144 0.68791,1.99292 -0.0175,0.45891 -0.0412,0.57091 -0.18704,0.88128 -0.18196,0.38734 -0.61211,0.85571 -0.89257,0.97189 -0.0901,0.0373 -0.16373,0.0835 -0.16373,0.10284 0,0.0193 0.11158,0.0648 0.24782,0.10128 0.13632,0.0365 0.39049,0.13646 0.56486,0.22223 1.00153,0.49281 1.43337,1.42684 1.28066,2.76988 -0.074,0.65067 -0.21528,1.07056 -0.50899,1.51267 -0.58891,0.88646 -1.73916,1.35422 -3.72348,1.51419 l -0.18262,0.0147 -0.0143,1.21304 -0.0143,1.21304 h -0.70339 -0.70339 v -1.19999 -1.20002 h -0.6 -0.59999 v 1.20002 1.19999 h -0.73044 -0.73044 z m 3.15724,-2.94633 c 1.69089,-0.1526 2.47726,-0.6534 2.4964,-1.58983 0.0169,-0.82532 -0.51386,-1.32945 -1.66234,-1.57906 -0.25219,-0.0548 -0.69619,-0.0815 -1.43479,-0.0864 l -1.06955,-0.007 -0.0143,1.59075 c -0.007,0.87493 -0.003,1.62037 0.0114,1.65653 0.0305,0.0793 0.87664,0.087 1.67271,0.015 z m 0.50375,-4.84647 c 0.91779,-0.24115 1.29694,-0.64394 1.29439,-1.37511 -0.003,-0.7147 -0.482,-1.19609 -1.38147,-1.38689 -0.37497,-0.0795 -1.47322,-0.13504 -1.81857,-0.0918 l -0.29448,0.0368 v 1.49078 1.49075 l 0.9,-0.0296 c 0.65722,-0.0216 1.00796,-0.0581 1.30013,-0.13475 z"
       id="path1116" />
    <g
       id="g1658"
       transform="matrix(0.42463883,0,0,0.42463883,116.26915,18.65675)"
       style="opacity:1;fill:#00c2ef">
      <path
         style="opacity:1;fill:#00c2ef;stroke-width:58.7154;stroke-linecap:round;stroke-linejoin:round;paint-order:markers fill stroke"
         d="m -421.47688,668.9441 c -7.93536,-3.96534 -20.11651,-19.46436 -27.18224,-34.58607 -3.07199,-6.5745 -5.99245,-15.40686 -7.66366,-23.17725 -1.58457,-7.36753 -1.61025,-23.83797 -0.0469,-30.0691 4.3806,-17.45991 14.47364,-29.11467 29.25787,-33.78505 9.83705,-3.10754 17.41289,-2.56984 29.54784,2.09719 2.30219,0.8854 5.70368,1.97692 7.55888,2.42559 3.70713,0.89656 2.96599,1.06047 20.43914,-4.52029 6.33157,-2.02224 8.14665,-2.33714 13.65235,-2.36861 11.53696,-0.0659 21.651,3.91787 29.2262,11.51185 l 4.21603,4.22648 -1.79878,1.25828 c -4.14469,2.89928 -10.94353,10.4012 -12.85107,14.18002 -3.87971,7.68567 -4.92165,16.85041 -2.89378,25.45327 2.17755,9.23782 10.00185,19.54469 18.07975,23.81625 1.91743,1.01393 3.5572,1.89451 3.64393,1.95684 0.29024,0.20858 -3.10013,8.14397 -5.68765,13.31234 -4.25555,8.50013 -9.26429,15.61545 -15.03102,21.35275 -6.57105,6.53752 -9.87829,8.30628 -16.20208,8.6651 -4.73634,0.26876 -7.64069,-0.40139 -17.52884,-4.04457 -4.09944,-1.51038 -5.73487,-1.75862 -11.74737,-1.78304 -6.73048,-0.0274 -7.2998,0.0815 -15.62861,2.98783 -11.01007,3.84197 -15.40438,4.06625 -21.36,1.09019 z"
         id="path1418"
         transform="matrix(0.26458333,0,0,0.26458333,98.215231,129.01319)" />
      <path
         style="opacity:1;fill:#00c2ef;stroke-width:58.7154;stroke-linecap:round;stroke-linejoin:round;paint-order:markers fill stroke"
         d="m -387.34574,540.62947 c 0,-16.24418 14.46999,-32.00513 32.22589,-35.10095 l 2.06373,-0.35982 -0.009,3.31784 c -0.0322,11.39433 -6.80601,23.10244 -17.50683,30.25958 -5.17461,3.46099 -9.73107,5.1254 -14.03119,5.1254 h -2.74221 z"
         id="path1457"
         transform="matrix(0.26458333,0,0,0.26458333,98.215231,129.01319)" />
    </g>
    <text
       xml:space="preserve"
       style="font-style:normal;font-variant:normal;font-weight:600;font-stretch:normal;font-size:18.5034px;line-height:1.25;font-family:Poppins;-inkscape-font-specification:'Poppins, Semi-Bold';font-variant-ligatures:normal;font-variant-caps:normal;font-variant-numeric:normal;font-variant-east-asian:normal;opacity:0.676543;fill:#00c2ef;stroke-width:0.867342"
       x="116.97401"
       y="155.35878"
       id="text2406"><tspan
         sodipodi:role="line"
         id="tspan2404"
         style="font-style:normal;font-variant:normal;font-weight:600;font-stretch:normal;font-size:18.5034px;font-family:Poppins;-inkscape-font-specification:'Poppins, Semi-Bold';font-variant-ligatures:normal;font-variant-caps:normal;font-variant-numeric:normal;font-variant-east-asian:normal;fill:#00c2ef;stroke-width:0.867342"
         x="116.97401"
         y="155.35878">$</tspan></text>
  </g>
</svg>
