<?xml version="1.0" encoding="UTF-8" standalone="no"?>
<svg
   height="549.71521pt"
   fill="#00c2ef"
   viewBox="0 0 549.71521 549.71521"
   width="549.71521pt"
   version="1.1"
   id="svg826"
   sodipodi:docname="Reddit.svg"
   inkscape:version="1.1 (c4e8f9e, 2021-05-24)"
   xmlns:inkscape="http://www.inkscape.org/namespaces/inkscape"
   xmlns:sodipodi="http://sodipodi.sourceforge.net/DTD/sodipodi-0.dtd"
   xmlns="http://www.w3.org/2000/svg"
   xmlns:svg="http://www.w3.org/2000/svg">
  <defs
     id="defs830" />
  <sodipodi:namedview
     id="namedview828"
     pagecolor="#505050"
     bordercolor="#ffffff"
     borderopacity="1"
     inkscape:pageshadow="0"
     inkscape:pageopacity="0"
     inkscape:pagecheckerboard="1"
     inkscape:document-units="pt"
     showgrid="false"
     inkscape:zoom="0.22888184"
     inkscape:cx="1146.88"
     inkscape:cy="928.42666"
     inkscape:window-width="1312"
     inkscape:window-height="847"
     inkscape:window-x="1860"
     inkscape:window-y="64"
     inkscape:window-maximized="0"
     inkscape:current-layer="svg826"
     inkscape:snap-global="false" />
  <circle
     style="fill:#eeeeee;fill-opacity:1;fill-rule:evenodd;stroke-width:2.63675"
     id="path934"
     cx="274.8576"
     cy="274.8576"
     r="274.8576" />
  <ellipse
     style="opacity:1;fill:#00c2ef;fill-rule:evenodd;stroke-width:0.750671"
     id="path1334"
     cx="274.8576"
     cy="274.8576"
     rx="255.79843"
     ry="255.79781" />
  <path
     style="fill:#eeeeee;fill-opacity:1;stroke:none;stroke-width:55.1122;stroke-linecap:round;stroke-linejoin:round;paint-order:markers fill stroke"
     d="m 252.34016,402.73845 c -18.0843,-2.1036 -30.74467,-5.84539 -48.73725,-14.40433 -29.61045,-14.08545 -48.67995,-34.63135 -54.14355,-58.33544 -1.45395,-6.30784 -2.3379,-14.04928 -1.96432,-17.2032 0.60337,-5.09434 -0.18878,-6.55734 -7.0965,-13.1072 -15.97193,-15.14436 -14.37788,-36.76061 3.58747,-48.64952 9.20873,-6.09406 22.02968,-6.30294 32.24025,-0.52527 6.83865,3.86968 7.15043,3.89905 11.46878,1.08084 16.87822,-11.01485 47.28712,-20.93583 70.79422,-23.09684 l 12.288,-1.12964 4.5948,-22.41259 c 9.28433,-45.28742 11.92448,-56.2029 13.88775,-57.41625 1.10355,-0.68204 12.8793,1.19469 26.1684,4.17051 13.28903,2.97582 25.5471,5.41675 27.24008,5.42427 1.69305,0.008 5.93452,-2.56679 9.42555,-5.72071 7.2252,-6.52753 15.8889,-7.6575 24.51405,-3.19726 19.16812,9.91222 11.9865,40.06126 -9.54278,40.06126 -11.50447,0 -18.60892,-5.81129 -22.34467,-18.27751 -0.44715,-1.49198 -3.2589,-3.21276 -6.2484,-3.82393 -2.98958,-0.61118 -11.33378,-2.47749 -18.54278,-4.14735 -24.321,-5.63367 -24.85125,-5.66114 -25.78875,-1.33584 -0.4563,2.10531 -3.52222,16.73023 -6.81307,32.49983 -3.29078,15.7696 -6.36338,29.90034 -6.82785,31.40164 -0.71085,2.29751 0.9168,2.89796 10.28137,3.79278 24.0141,2.29465 52.83375,11.84526 72.15503,23.91158 3.0741,1.91979 4.33852,1.75427 9.75382,-1.27676 17.69325,-9.90324 36.05603,-4.16372 44.3016,13.847 3.19268,6.97361 3.83918,10.35069 2.99378,15.63746 -1.35285,8.46061 -6.1869,16.38603 -13.30673,21.81659 -4.56802,3.48421 -5.35402,4.9813 -4.59855,8.75865 0.50115,2.50587 0.0292,8.89333 -1.04865,14.19439 -5.49997,27.04858 -22.78372,47.18599 -53.19292,61.97563 -30.68348,14.92303 -59.78108,19.64189 -95.49818,15.48721 z m 41.06093,-26.22873 c 16.22955,-2.5093 27.3495,-6.98358 33.73822,-13.57507 9.65048,-9.95675 2.12955,-18.16044 -9.3693,-10.2199 -11.20597,7.73829 -18.21495,9.7174 -37.20585,10.50562 -22.17832,0.92052 -33.40567,-1.23223 -46.00965,-8.82195 -7.94617,-4.78495 -10.18567,-5.4679 -13.29082,-4.05309 -5.71515,2.60401 -4.83585,8.73469 2.00062,13.94916 15.19073,11.58653 42.94238,16.41985 70.13678,12.21523 z m -55.95585,-56.75379 c 5.29912,-3.12904 11.21362,-13.21087 11.21362,-19.11455 0,-6.70522 -3.94312,-14.58949 -9.73327,-19.4616 -6.66083,-5.60467 -19.3443,-6.16753 -27.46073,-1.21863 -11.58547,7.06406 -14.44695,23.50502 -5.93152,34.07974 8.08507,10.04032 20.7468,12.30787 31.9119,5.71504 z m 101.70465,-0.67673 c 12.89707,-9.18349 12.30142,-31.08695 -1.06703,-39.23902 -7.81657,-4.76652 -20.6832,-4.19594 -27.09787,1.20166 -9.76125,8.21351 -12.3645,18.68641 -7.29855,29.36208 6.0621,12.77493 23.66025,17.07989 35.46345,8.67528 z"
     id="path1041" />
</svg>
