<?xml version="1.0" encoding="UTF-8" standalone="no"?>
<!-- Created with Inkscape (http://www.inkscape.org/) -->

<svg
   width="64.744949mm"
   height="64.894356mm"
   viewBox="0 0 64.744949 64.894356"
   version="1.1"
   id="svg5"
   inkscape:version="1.1 (c4e8f9e, 2021-05-24)"
   sodipodi:docname="StocksIcon.svg"
   xmlns:inkscape="http://www.inkscape.org/namespaces/inkscape"
   xmlns:sodipodi="http://sodipodi.sourceforge.net/DTD/sodipodi-0.dtd"
   xmlns="http://www.w3.org/2000/svg"
   xmlns:svg="http://www.w3.org/2000/svg">
  <sodipodi:namedview
     id="namedview7"
     pagecolor="#505050"
     bordercolor="#ffffff"
     borderopacity="1"
     inkscape:pageshadow="0"
     inkscape:pageopacity="0"
     inkscape:pagecheckerboard="1"
     inkscape:document-units="mm"
     showgrid="false"
     inkscape:snap-global="false"
     inkscape:zoom="1.5748204"
     inkscape:cx="159.70075"
     inkscape:cy="135.25351"
     inkscape:window-width="1816"
     inkscape:window-height="902"
     inkscape:window-x="1614"
     inkscape:window-y="55"
     inkscape:window-maximized="0"
     inkscape:current-layer="layer1" />
  <defs
     id="defs2" />
  <g
     inkscape:label="Layer 1"
     inkscape:groupmode="layer"
     id="layer1"
     transform="translate(-142.86023,-72.390168)">
    <g
       id="g16207">
      <rect
         style="font-variation-settings:normal;fill:none;fill-opacity:1;fill-rule:evenodd;stroke:#00c2ef;stroke-width:4.391;stroke-linecap:butt;stroke-linejoin:miter;stroke-miterlimit:4;stroke-dasharray:none;stroke-dashoffset:0;stroke-opacity:1;stop-color:#000000"
         id="rect846-5"
         width="59.514797"
         height="59.514797"
         x="145.55911"
         y="75.037514"
         ry="3.7678914" />
      <text
         xml:space="preserve"
         style="font-style:normal;font-variant:normal;font-weight:500;font-stretch:normal;font-size:26.4832px;line-height:1.25;font-family:Poppins;-inkscape-font-specification:'Poppins, Medium';font-variant-ligatures:normal;font-variant-caps:normal;font-variant-numeric:normal;font-variant-east-asian:normal;mix-blend-mode:normal;fill:#efefef;fill-opacity:1;stroke-width:1.2414"
         x="167.38565"
         y="114.13024"
         id="text4289-0"><tspan
           sodipodi:role="line"
           id="tspan4287-3"
           style="font-style:normal;font-variant:normal;font-weight:500;font-stretch:normal;font-size:26.4832px;font-family:Poppins;-inkscape-font-specification:'Poppins, Medium';font-variant-ligatures:normal;font-variant-caps:normal;font-variant-numeric:normal;font-variant-east-asian:normal;fill:#efefef;fill-opacity:1;stroke-width:1.2414"
           x="167.38565"
           y="114.13024">$</tspan></text>
      <path
         style="fill:#00c2ef;fill-opacity:1;stroke:#00c2ef;stroke-width:1.12076;stroke-linecap:round;stroke-linejoin:round;stroke-miterlimit:4;stroke-dasharray:none;stroke-opacity:1;paint-order:markers fill stroke"
         d="m 149.19988,126.76369 c -0.32078,-0.32078 -0.23444,-0.93241 0.17179,-1.21694 0.26494,-0.18558 0.77732,-0.26154 1.76409,-0.26154 h 1.39069 v -4.16661 c 0,-3.01669 0.0556,-4.22226 0.20161,-4.36823 0.28618,-0.28618 7.87903,-0.28618 8.16521,0 0.14597,0.14597 0.20161,1.35154 0.20161,4.36823 v 4.16661 h 1.8481 1.84809 v -12.48304 c 0,-9.48501 0.0484,-12.53145 0.20161,-12.68464 0.11089,-0.11088 0.57333,-0.201607 1.02765,-0.201607 0.77572,0 0.81964,0.023 0.72107,0.378017 -0.44538,1.60391 -0.63825,3.55554 -0.55208,5.58628 0.11836,2.78917 0.54682,4.542 1.66327,6.80435 1.12488,2.27943 2.78131,4.02703 4.54087,4.79078 l 1.13406,0.49226 v 3.6588 3.6588 h 1.84809 1.8481 v -3.65995 -3.65994 l 1.05005,-0.48872 c 1.6401,-0.76333 3.54405,-2.77002 4.50038,-4.74321 l 0.74989,-1.54725 0.84993,-0.007 c 1.5971,-0.0128 1.4955,-0.49065 1.54966,7.28789 l 0.0475,6.818 h 1.84263 1.84263 v -15.61888 c 0,-15.269977 0.007,-15.622767 0.32497,-15.792797 0.19576,-0.10477 1.79428,-0.17392 4.02021,-0.17392 3.14545,0 3.73477,0.0395 3.96097,0.26574 0.23911,0.23911 0.26135,1.82121 0.22201,15.792807 l -0.0437,15.52708 1.34869,-1e-5 c 0.94877,-1e-5 1.45941,0.0775 1.72209,0.26152 0.40623,0.28454 0.49257,0.89616 0.17179,1.21694 -0.29311,0.29311 -51.89035,0.29311 -52.18346,0 z"
         id="path15374-2" />
      <path
         style="fill:#00c2ef;fill-opacity:1;stroke:#00c2ef;stroke-width:1.12076;stroke-linecap:round;stroke-linejoin:round;stroke-miterlimit:4;stroke-dasharray:none;stroke-opacity:1;paint-order:markers fill stroke"
         d="m 182.83397,97.254893 -0.35404,-0.808411 5.11204,-5.589894 c 2.81163,-3.074443 5.08676,-5.615181 5.05585,-5.646089 -0.0309,-0.03091 -0.75107,0.136652 -1.60036,0.37235 -0.8959,0.248635 -1.71894,0.384681 -1.96047,0.324059 -0.68106,-0.170936 -0.77118,-1.107434 -0.1317,-1.368517 0.59882,-0.244478 5.67575,-1.590051 6.00172,-1.590675 0.6932,-0.0013 0.74764,0.255516 0.74764,3.527523 0,3.290342 -0.0518,3.528179 -0.76907,3.528179 -0.60152,0 -0.72817,-0.354153 -0.77878,-2.177611 l -0.0482,-1.738183 -5.20827,5.688079 c -2.86454,3.128443 -5.32167,5.822971 -5.46028,5.987841 -0.23447,0.278897 -0.27665,0.243493 -0.60605,-0.508651 z"
         id="path15413-6" />
      <path
         style="fill:#00c2ef;fill-opacity:1;stroke:#00c2ef;stroke-width:1.12076;stroke-linecap:round;stroke-linejoin:round;stroke-miterlimit:4;stroke-dasharray:none;stroke-opacity:1;paint-order:markers fill stroke"
         d="m 151.72,106.43466 c -0.55469,-0.5547 -0.26694,-0.86306 8.45068,-9.055871 4.75876,-4.472276 8.79296,-8.15418 8.9649,-8.182009 0.19272,-0.0312 1.00006,0.514337 2.10523,1.422556 l 1.79263,1.473155 -0.77412,0.393414 -0.77411,0.393417 -1.12096,-0.924491 -1.12095,-0.924489 -0.67204,0.644292 c -0.36961,0.354362 -4.10479,3.865695 -8.3004,7.802962 -5.15531,4.837894 -7.74521,7.158674 -7.9888,7.158674 -0.19824,0 -0.45117,-0.0907 -0.56206,-0.20161 z"
         id="path15452-9" />
      <path
         style="fill:#00c2ef;fill-opacity:1;stroke:#00c2ef;stroke-width:1.12076;stroke-linecap:round;stroke-linejoin:round;stroke-miterlimit:4;stroke-dasharray:none;stroke-opacity:1;paint-order:markers fill stroke"
         d="m 147.82221,136.44345 c -1.88907,-0.49929 -3.56098,-2.11661 -4.11435,-3.98 -0.37932,-1.27731 -0.38463,-54.055347 -0.006,-55.331797 0.52077,-1.753624 1.8811,-3.173881 3.69989,-3.86288 0.81177,-0.307514 1.75335,-0.318225 27.97343,-0.318225 h 27.13338 l 0.97392,0.393034 c 1.18484,0.478155 2.56698,1.780127 3.14983,2.967138 l 0.41249,0.840041 v 27.637409 27.63741 l -0.37882,0.76874 c -0.84648,1.71773 -2.26103,2.86615 -4.04864,3.2869 -1.47486,0.34715 -53.47486,0.3113 -54.79556,-0.0378 z m 54.38082,-4.26082 c 0.20133,-0.13363 0.44704,-0.42071 0.54602,-0.63794 0.12551,-0.27547 0.17997,-8.39526 0.17997,-26.83554 V 78.268599 l -0.43496,-0.516916 -0.43496,-0.516917 h -26.68905 -26.68906 l -0.47139,0.405474 -0.4714,0.405477 v 26.714373 26.71437 l 0.3989,0.42461 c 0.21939,0.23354 0.55961,0.45661 0.75604,0.49572 0.19643,0.0391 12.18914,0.062 26.65048,0.0509 22.63192,-0.0173 26.34432,-0.054 26.65941,-0.2631 z"
         id="path15491-4" />
    </g>
  </g>
</svg>
