<?xml version="1.0" encoding="UTF-8" standalone="no"?>
<!-- Created with Inkscape (http://www.inkscape.org/) -->

<svg
   width="18.574644mm"
   height="23.075855mm"
   viewBox="0 0 18.574644 23.075855"
   version="1.1"
   id="svg5"
   inkscape:version="1.1 (c4e8f9e, 2021-05-24)"
   sodipodi:docname="trash.svg"
   xmlns:inkscape="http://www.inkscape.org/namespaces/inkscape"
   xmlns:sodipodi="http://sodipodi.sourceforge.net/DTD/sodipodi-0.dtd"
   xmlns="http://www.w3.org/2000/svg"
   xmlns:svg="http://www.w3.org/2000/svg">
  <sodipodi:namedview
     id="namedview7"
     pagecolor="#505050"
     bordercolor="#ffffff"
     borderopacity="1"
     inkscape:pageshadow="0"
     inkscape:pageopacity="0"
     inkscape:pagecheckerboard="1"
     inkscape:document-units="mm"
     showgrid="false"
     inkscape:snap-global="true"
     inkscape:zoom="4"
     inkscape:cx="42.5"
     inkscape:cy="9.375"
     inkscape:window-width="1487"
     inkscape:window-height="1027"
     inkscape:window-x="2632"
     inkscape:window-y="35"
     inkscape:window-maximized="0"
     inkscape:current-layer="layer1" />
  <defs
     id="defs2" />
  <g
     inkscape:label="Layer 1"
     inkscape:groupmode="layer"
     id="layer1"
     transform="translate(-135.14895,-244.8114)">
    <g
       id="g27562"
       transform="matrix(0.70741596,0,0,0.70741596,41.795173,73.79386)"
       style="fill:#c4c4c4;fill-opacity:1;opacity:0.63950617">
      <path
         style="opacity:1;fill:#c4c4c4;fill-opacity:1;stroke:none;stroke-width:4.28249;stroke-miterlimit:4;stroke-dasharray:none;stroke-opacity:1;paint-order:markers fill stroke"
         d="m 136.67929,274.26005 c -0.65198,-0.19049 -1.40352,-0.7019 -1.805,-1.22827 -0.7273,-0.95354 -0.72699,-0.94905 -0.72699,-10.68147 v -8.9748 h -0.7791 c -0.57037,0 -0.86276,-0.0678 -1.09141,-0.25316 -0.3082,-0.24983 -0.31231,-0.2859 -0.31231,-2.74505 0,-2.30122 0.0219,-2.53239 0.28554,-3.02106 0.72611,-1.34563 1.47687,-1.65365 4.03057,-1.65365 h 1.83546 l 0.006,-1.09141 c 0.007,-1.28293 0.21487,-1.79937 0.96486,-2.4025 l 0.5082,-0.40869 5.37878,-0.041 c 2.95833,-0.0225 5.63643,-0.003 5.95133,0.0427 0.72866,0.10649 1.50633,0.78328 1.72017,1.49702 0.0851,0.28395 0.15468,0.94097 0.15468,1.46004 v 0.94377 h 1.50472 c 2.20095,0 3.08794,0.39983 3.66843,1.65365 0.21119,0.45615 0.2454,0.87952 0.2479,3.06828 0.003,2.47548 -0.004,2.54427 -0.29111,2.74505 -0.18337,0.12844 -0.58035,0.20594 -1.05487,0.20594 h -0.76085 l -0.0365,9.22734 -0.0365,9.22734 -0.35071,0.66146 c -0.41135,0.77584 -0.75395,1.11231 -1.56752,1.5395 l -0.59532,0.31259 -8.20208,0.0231 c -5.04939,0.0142 -8.37297,-0.0268 -8.64665,-0.10679 z m 16.5855,-1.76044 c 0.25074,-0.10476 0.57602,-0.38753 0.72287,-0.62838 0.26088,-0.42791 0.26699,-0.64413 0.26747,-9.46682 l 5e-4,-9.0289 h -9.12813 -9.12812 v 9.09868 c 0,10.05036 -0.0537,9.41586 0.84226,9.96216 0.39561,0.24123 0.76913,0.25277 8.19089,0.25325 6.46945,2.6e-4 7.85301,-0.0315 8.23226,-0.18999 z m 3.2398,-22.64001 c 0,-1.66257 -2.7e-4,-1.66411 -0.3867,-2.05052 l -0.3867,-0.3867 h -10.54002 c -11.66419,0 -11.13057,-0.0392 -11.43697,0.83979 -0.14962,0.4292 -0.18889,3.03204 -0.0479,3.17306 0.0485,0.0485 5.19796,0.0882 11.44323,0.0882 h 11.35504 z m -5.45042,-5.06153 c 0.0239,-0.50422 -0.0222,-0.91286 -0.11542,-1.02526 -0.12892,-0.15534 -1.05608,-0.18689 -5.49206,-0.18689 -5.1411,0 -5.34199,0.009 -5.47391,0.25589 -0.15206,0.28413 -0.18804,1.63329 -0.0473,1.77402 0.0493,0.0493 2.56449,0.0741 5.58933,0.0551 l 5.49969,-0.0345 z"
         id="path27199" />
      <g
         id="g27555"
         transform="translate(58.603752,-21.563542)"
         style="fill:#c4c4c4;fill-opacity:1">
        <path
           style="opacity:1;fill:#c4c4c4;fill-opacity:1;stroke:none;stroke-width:16.1858;stroke-miterlimit:4;stroke-dasharray:none;stroke-opacity:1;paint-order:markers fill stroke"
           d="M -198.96371,172.93257 C -199.97406,171.64812 -200,171.09883 -200,150.98796 c 0,-19.30119 0.0593,-20.70038 0.92208,-21.7659 1.16547,-1.43929 3.91361,-1.55701 4.89869,-0.20983 0.54723,0.74838 0.67923,5.08313 0.67923,22.30498 v 21.37609 l -1.11125,0.77835 c -1.63271,1.14359 -3.17958,0.952 -4.35246,-0.53908 z"
           id="path27355"
           transform="matrix(0.26458333,0,0,0.26458333,133.75042,244.44582)" />
        <path
           style="opacity:1;fill:#c4c4c4;fill-opacity:1;stroke:none;stroke-width:16.1858;stroke-miterlimit:4;stroke-dasharray:none;stroke-opacity:1;paint-order:markers fill stroke"
           d="M -180.30015,173.86734 C -181.88005,172.81241 -182,171.18742 -182,150.83826 c 0,-18.79195 0.0723,-20.56682 0.8789,-21.56287 1.23392,-1.52382 3.98753,-1.54945 5.203,-0.0484 0.85764,1.05915 0.9181,2.49212 0.9181,21.76099 0,20.11087 -0.0259,20.66016 -1.03629,21.94461 -1.02308,1.30064 -3.05032,1.74508 -4.26386,0.93477 z"
           id="path27394"
           transform="matrix(0.26458333,0,0,0.26458333,133.75042,244.44582)" />
        <path
           style="opacity:1;fill:#c4c4c4;fill-opacity:1;stroke:none;stroke-width:16.1858;stroke-miterlimit:4;stroke-dasharray:none;stroke-opacity:1;paint-order:markers fill stroke"
           d="m -162.67251,173.33563 c -0.74301,-0.82103 -0.82749,-3.11175 -0.82749,-22.43878 0,-23.67462 -0.11514,-22.81352 3.05045,-22.81352 3.27749,0 3.19955,-0.55738 3.19955,22.88203 0,20.12587 -0.0474,21.23202 -0.95249,22.23215 -1.17247,1.29555 -3.36134,1.36319 -4.47002,0.13812 z"
           id="path27433"
           transform="matrix(0.26458333,0,0,0.26458333,133.75042,244.44582)" />
      </g>
    </g>
  </g>
</svg>
