<?xml version="1.0" encoding="UTF-8" standalone="no"?>
<svg
   height="549.71521pt"
   fill="#00c2ef"
   viewBox="0 0 549.71521 549.71521"
   width="549.71521pt"
   version="1.1"
   id="svg826"
   sodipodi:docname="Website.svg"
   inkscape:version="1.1 (c4e8f9e, 2021-05-24)"
   xmlns:inkscape="http://www.inkscape.org/namespaces/inkscape"
   xmlns:sodipodi="http://sodipodi.sourceforge.net/DTD/sodipodi-0.dtd"
   xmlns="http://www.w3.org/2000/svg"
   xmlns:svg="http://www.w3.org/2000/svg">
  <defs
     id="defs830" />
  <sodipodi:namedview
     id="namedview828"
     pagecolor="#505050"
     bordercolor="#ffffff"
     borderopacity="1"
     inkscape:pageshadow="0"
     inkscape:pageopacity="0"
     inkscape:pagecheckerboard="1"
     inkscape:document-units="pt"
     showgrid="false"
     inkscape:zoom="0.1618439"
     inkscape:cx="1146.1662"
     inkscape:cy="658.04148"
     inkscape:window-width="1312"
     inkscape:window-height="847"
     inkscape:window-x="1860"
     inkscape:window-y="92"
     inkscape:window-maximized="0"
     inkscape:current-layer="svg826"
     inkscape:snap-global="false" />
  <circle
     style="fill:#eeeeee;fill-opacity:1;fill-rule:evenodd;stroke-width:2.63675"
     id="path934"
     cx="274.8576"
     cy="274.8576"
     r="274.8576" />
  <ellipse
     style="opacity:1;fill:#00c2ef;fill-rule:evenodd;stroke-width:0.750671"
     id="path1334"
     cx="274.8576"
     cy="274.8576"
     rx="255.79843"
     ry="255.79781" />
  <g
     id="g1625"
     transform="translate(-3.039594,0.48826422)">
    <path
       id="path1012"
       style="fill:none;fill-rule:evenodd;stroke:#eeeeee;stroke-width:25.2283"
       transform="rotate(12.920078)"
       d="m 410.27577,133.39543 c 0,63.5607 -11.85424,97.00655 -66.39093,98.92604 -45.04652,1.58547 -51.84469,-35.36534 -51.84469,-98.92604 0,-63.560701 14.35451,-97.7695 62.39223,-95.631507 41.63692,1.853116 55.84339,32.070806 55.84339,95.631507 z"
       sodipodi:nodetypes="sssss" />
    <path
       id="path1012-2"
       style="fill:none;fill-rule:evenodd;stroke:#eeeeee;stroke-width:25.2283"
       d="m 303.1653,351.90872 c -14.21165,61.95152 -33.24398,91.90011 -86.82915,81.57706 -44.26057,-8.5267 -42.62473,-46.06204 -28.41309,-108.01357 14.21165,-61.95152 35.85154,-92.08471 82.19505,-79.26001 40.16845,11.11587 47.25883,43.74499 33.04719,105.69652 z"
       sodipodi:nodetypes="sssss" />
  </g>
</svg>
